<svg width="20" height="20" viewBox="0 0 20 20" fill="none" xmlns="http://www.w3.org/2000/svg">
<path d="M4.43606 8.06976C6.44746 4.51064 7.45316 2.73107 8.83322 2.27299C9.59239 2.02098 10.4102 2.02098 11.1694 2.27299C12.5495 2.73107 13.5551 4.51064 15.5666 8.06976C17.578 11.6288 18.5836 13.4084 18.282 14.8584C18.116 15.6562 17.7071 16.3797 17.1138 16.9254C16.0355 17.9173 14.0241 17.9173 10.0013 17.9173C5.97851 17.9173 3.96711 17.9173 2.88877 16.9254C2.29554 16.3797 1.88663 15.6562 1.72066 14.8584C1.41896 13.4084 2.42466 11.6288 4.43606 8.06976Z" stroke="#B21F29" stroke-width="1.5"/>
<path d="M9.99219 13.333H9.99969" stroke="#B21F29" stroke-width="2" stroke-linecap="round" stroke-linejoin="round"/>
<path d="M10 10.8334V7.5" stroke="#B21F29" stroke-width="1.5" stroke-linecap="round" stroke-linejoin="round"/>
</svg>
