<svg width="20" height="20" viewBox="0 0 20 20" fill="none" xmlns="http://www.w3.org/2000/svg">
<path d="M7.15807 3.71241L6.75541 2.80643C6.49213 2.21406 6.36049 1.91786 6.16362 1.69119C5.91689 1.40712 5.59528 1.19812 5.23549 1.08803C4.9484 1.00018 4.62427 1.00018 3.97602 1.00018C3.02772 1.00018 2.55357 1.00018 2.15554 1.18247C1.68668 1.3972 1.26325 1.86346 1.09454 2.35078C0.951324 2.76447 0.992354 3.18961 1.07439 4.03988C1.94772 13.0904 6.90963 18.0523 15.9601 18.9256C16.8104 19.0077 17.2356 19.0487 17.6492 18.9055C18.1366 18.7368 18.6028 18.3133 18.8176 17.8445C18.9998 17.4464 18.9998 16.9723 18.9998 16.024C18.9998 15.3757 18.9998 15.0516 18.912 14.7645C18.8019 14.4047 18.5929 14.0831 18.3088 13.8364C18.0822 13.6395 17.786 13.5079 17.1936 13.2446L16.2876 12.8419C15.6461 12.5568 15.3253 12.4143 14.9994 12.3833C14.6874 12.3536 14.3729 12.3974 14.0809 12.5111C13.7758 12.6299 13.5062 12.8546 12.9668 13.304C12.43 13.7514 12.1616 13.9751 11.8336 14.0949C11.5428 14.2011 11.1584 14.2405 10.8522 14.1953C10.5067 14.1444 10.2422 14.0031 9.71307 13.7203C8.06707 12.8407 7.15934 11.933 6.27968 10.2869C5.99695 9.75788 5.85559 9.49328 5.80468 9.14788C5.75955 8.84158 5.79889 8.45718 5.90511 8.16648C6.02493 7.83846 6.24862 7.57004 6.696 7.03318C7.14543 6.49386 7.37015 6.2242 7.48896 5.91909C7.60266 5.62712 7.64643 5.31258 7.61676 5.00066C7.58575 4.6747 7.44319 4.35394 7.15807 3.71241Z" stroke="#B21F29" stroke-width="2" stroke-linecap="round"/>
</svg>
