<svg width="60" height="60" viewBox="0 0 60 60" fill="none" xmlns="http://www.w3.org/2000/svg">
<path d="M41.5317 40.2115C34.949 43.9193 31.1932 51.6023 30 53.75V20C31.0362 18.1349 34.005 12.7912 39.0792 9.15921C41.217 7.62918 42.2857 6.86415 43.643 7.5617C45 8.25928 45 9.79908 45 12.8787V34.9785C45 36.642 45 37.4738 44.6585 38.0583C44.3167 38.6428 43.3885 39.1658 41.5317 40.2115Z" stroke="#B21F29" stroke-width="3" stroke-linecap="round" stroke-linejoin="round"/>
<path d="M30 19.5139C28.2827 17.7101 23.3044 13.426 14.9514 11.924C10.7197 11.163 8.60392 10.7825 6.80195 12.2408C5 13.6991 5 16.0672 5 20.8033V37.8242C5 42.1547 5 44.32 6.1565 45.6717C7.313 47.0237 9.85912 47.4815 14.9514 48.3972C19.4908 49.2135 23.0336 50.5142 25.598 51.8212C28.121 53.107 29.3825 53.75 30 53.75C30.6175 53.75 31.879 53.107 34.402 51.8212C36.9665 50.5142 40.5092 49.2135 45.0485 48.3972C50.141 47.4815 52.687 47.0237 53.8435 45.6717C55 44.32 55 42.1547 55 37.8242V20.8033C55 16.0672 55 13.6991 53.198 12.2408C51.396 10.7825 47.5 11.924 45 13.75" stroke="#B21F29" stroke-width="3" stroke-linecap="round" stroke-linejoin="round"/>
</svg>
