<svg width="24" height="24" viewBox="0 0 24 24" fill="none" xmlns="http://www.w3.org/2000/svg">
<path d="M11.0988 3.00012C7.44979 3.00669 5.53898 3.09629 4.31783 4.31764C3 5.63568 3 7.75704 3 11.9997C3 16.2424 3 18.3638 4.31783 19.6818C5.63565 20.9999 7.75667 20.9999 11.9988 20.9999C16.2407 20.9999 18.3618 20.9999 19.6796 19.6818C20.9007 18.4605 20.9903 16.5493 20.9969 12.8998" stroke="white" stroke-width="1.5" stroke-linecap="round" stroke-linejoin="round"/>
<path d="M20.5561 3.49612L11.0488 13.0586M20.5561 3.49612C20.0621 3.00151 16.7344 3.04761 16.0309 3.05762M20.5561 3.49612C21.0501 3.99074 21.004 7.32273 20.994 8.02714" stroke="white" stroke-width="1.5" stroke-linecap="round" stroke-linejoin="round"/>
</svg>
