<svg width="20" height="20" viewBox="0 0 20 20" fill="none" xmlns="http://www.w3.org/2000/svg">
<path d="M9.25076 2.50171C6.21001 2.50718 4.6177 2.58183 3.60011 3.5994C2.50195 4.69753 2.50195 6.46494 2.50195 9.99973C2.50195 13.5346 2.50195 15.302 3.60011 16.4001C4.69826 17.4982 6.46573 17.4982 10.0007 17.4982C13.5355 17.4982 15.303 17.4982 16.4012 16.4001C17.4188 15.3826 17.4934 13.7903 17.4989 10.7496" stroke="#141B34" stroke-width="1.5" stroke-linecap="round" stroke-linejoin="round"/>
<path d="M17.0668 2.93128L12.4424 7.54294M17.0668 2.93128C16.6551 2.51919 13.8821 2.5576 13.2959 2.56594M17.0668 2.93128C17.4784 3.34337 17.44 6.11943 17.4317 6.7063" stroke="#141B34" stroke-width="1.5" stroke-linecap="round" stroke-linejoin="round"/>
</svg>
