<svg width="32" height="32" viewBox="0 0 32 32" fill="none" xmlns="http://www.w3.org/2000/svg">
<path d="M29.3334 9.00004H25.6148C24.8134 9.00004 24.4126 9.00004 24.0347 8.88561C23.6568 8.7712 23.3234 8.54891 22.6564 8.10431C21.6562 7.43741 20.515 6.67664 19.948 6.505C19.3812 6.33337 18.78 6.33337 17.5778 6.33337C15.9428 6.33337 14.889 6.33337 14.1539 6.63785C13.4188 6.94233 12.8408 7.5204 11.6846 8.67652L10.6672 9.69396C10.4067 9.95451 10.2764 10.0848 10.196 10.2134C9.89782 10.6902 9.93086 11.3028 10.2785 11.7447C10.3723 11.8639 10.5159 11.9795 10.8029 12.2105C11.864 13.0644 13.3936 12.9791 14.3544 12.0126L16 10.3572H17.3334L25.3334 18.4048C26.0698 19.1456 26.0698 20.3465 25.3334 21.0873C24.597 21.8281 23.4031 21.8281 22.6667 21.0873L22 20.4167M22 20.4167L18 16.3929M22 20.4167C22.7364 21.1575 22.7364 22.3585 22 23.0992C21.2636 23.84 20.0698 23.84 19.3334 23.0992L18 21.758M18 21.758C18.7364 22.4987 18.7364 23.6997 18 24.4405C17.2636 25.1812 16.0698 25.1812 15.3334 24.4405L13.3334 22.4285M18 21.758L15.3334 19.0913M13.3334 22.4285L12.6667 21.758M13.3334 22.4285C14.0698 23.1693 14.0698 24.3704 13.3334 25.1112C12.597 25.8519 11.4031 25.8519 10.6667 25.1112L6.90185 21.2679C6.12822 20.4781 5.74141 20.0833 5.24582 19.8749C4.75023 19.6667 4.19746 19.6667 3.09194 19.6667H2.66669" stroke="white" stroke-width="2" stroke-linecap="round" stroke-linejoin="round"/>
<path d="M29.3333 19.6667H26" stroke="white" stroke-width="2" stroke-linecap="round"/>
<path d="M11.3334 9.00006H2.66669" stroke="white" stroke-width="2" stroke-linecap="round"/>
</svg>
