<svg width="32" height="32" viewBox="0 0 32 32" fill="none" xmlns="http://www.w3.org/2000/svg">
<path d="M25.3333 14V13.3334C25.3333 8.30503 25.3333 5.79089 23.7712 4.22878C22.2092 2.66669 19.6949 2.66669 14.6667 2.66669C9.63835 2.66669 7.1242 2.66669 5.56209 4.22878C4 5.79089 4 8.30503 4 13.3334V21.3334C4 23.8184 4 25.0608 4.40597 26.041C4.94728 27.3478 5.98553 28.386 7.29236 28.9274C8.27247 29.3334 9.51497 29.3334 12 29.3334" stroke="white" stroke-width="2" stroke-linecap="round" stroke-linejoin="round"/>
<path d="M9.33334 9.33331H20M9.33334 14.6666H14.6667" stroke="white" stroke-width="2" stroke-linecap="round"/>
<path d="M20.3767 25.3392C20.298 24.1543 20.1573 22.8877 19.5756 21.4556C19.0793 20.2341 19.2176 17.3607 22 17.3607C24.7824 17.3607 24.8885 20.2341 24.3923 21.4556C23.8104 22.8877 23.702 24.1543 23.6233 25.3392M28 29.3333H16V27.6724C16 27.0771 16.3552 26.5539 16.8704 26.3904L19.8768 25.436C20.0912 25.3679 20.3131 25.3333 20.5361 25.3333H23.4639C23.6869 25.3333 23.9088 25.3679 24.1232 25.436L27.1296 26.3904C27.6448 26.5539 28 27.0771 28 27.6724V29.3333Z" stroke="white" stroke-width="2" stroke-linecap="round" stroke-linejoin="round"/>
</svg>
