<svg width="32" height="32" viewBox="0 0 32 32" fill="none" xmlns="http://www.w3.org/2000/svg">
<path d="M26.6666 19.3315C26.6666 24.8554 21.891 29.3334 16 29.3334C10.1089 29.3334 5.33331 24.8554 5.33331 19.3315V19.0392C5.33331 18.0602 5.33331 17.5707 5.67151 17.3911C6.4045 17.002 7.99998 18.6667 7.99998 18.6667" stroke="white" stroke-width="2" stroke-linecap="round" stroke-linejoin="round"/>
<path d="M5.33331 12.6685C5.33331 7.14467 10.1089 2.66669 16 2.66669C21.891 2.66669 26.6666 7.14467 26.6666 12.6685V12.9609C26.6666 13.9399 26.6666 14.4294 26.3284 14.609C25.5954 14.998 24 13.3334 24 13.3334" stroke="white" stroke-width="2" stroke-linecap="round" stroke-linejoin="round"/>
<path d="M15.9728 14.8807C15.0135 16.7788 14.3128 19.8571 15.4163 23.3334M14.8575 20.0378C9.19635 16.0106 13.0853 11.3784 16.7465 9.04025C17.1884 8.75809 17.4093 8.61701 17.6665 8.68255C17.9237 8.7481 18.0473 8.97877 18.2945 9.44009C20.3497 13.276 21.8223 19.3191 14.8575 20.0378Z" stroke="white" stroke-width="2" stroke-linecap="round" stroke-linejoin="round"/>
</svg>
