<svg width="32" height="32" viewBox="0 0 32 32" fill="none" xmlns="http://www.w3.org/2000/svg">
<path d="M18.6667 4.66666H13.3334C8.30503 4.66666 5.79089 4.66666 4.22878 6.22875C2.66669 7.79086 2.66669 10.305 2.66669 15.3333V16.6667C2.66669 21.6949 2.66669 24.2092 4.22878 25.7712C5.79089 27.3333 8.30503 27.3333 13.3334 27.3333H18.6667C23.695 27.3333 26.2092 27.3333 27.7712 25.7712C29.3334 24.2092 29.3334 21.6949 29.3334 16.6667V15.3333C29.3334 10.305 29.3334 7.79086 27.7712 6.22875C26.2092 4.66666 23.695 4.66666 18.6667 4.66666Z" stroke="white" stroke-width="2" stroke-linejoin="round"/>
<path d="M6.66669 21.3333C8.04761 17.8919 13.1949 17.6655 14.6667 21.3333" stroke="white" stroke-width="2" stroke-linecap="round"/>
<path d="M13 13C13 14.2887 11.9553 15.3333 10.6666 15.3333C9.37798 15.3333 8.33331 14.2887 8.33331 13C8.33331 11.7113 9.37798 10.6667 10.6666 10.6667C11.9553 10.6667 13 11.7113 13 13Z" stroke="white" stroke-width="2"/>
<path d="M18.6667 11.3333H25.3334M18.6667 16H25.3334M18.6667 20.6667H22" stroke="white" stroke-width="2" stroke-linecap="round" stroke-linejoin="round"/>
</svg>
