<svg width="32" height="32" viewBox="0 0 32 32" fill="none" xmlns="http://www.w3.org/2000/svg">
<path d="M2.66666 12C2.66666 7.60025 2.66666 5.40035 4.0335 4.03353C5.40033 2.66669 7.60022 2.66669 12 2.66669H14.6667C19.0664 2.66669 21.2663 2.66669 22.6332 4.03353C24 5.40035 24 7.60025 24 12V14.6667C24 19.0664 24 21.2663 22.6332 22.6332C21.2663 24 19.0664 24 14.6667 24H12C7.60022 24 5.40033 24 4.0335 22.6332C2.66666 21.2663 2.66666 19.0664 2.66666 14.6667V12Z" stroke="white" stroke-width="2"/>
<path d="M24.3177 9.33331C26.0976 9.44182 27.2309 9.73954 28.048 10.5565C29.3333 11.8419 29.3333 13.9106 29.3333 18.0484V20.5561C29.3333 24.6937 29.3333 26.7625 28.048 28.048C26.7625 29.3333 24.6937 29.3333 20.5561 29.3333H18.0484C13.9107 29.3333 11.8419 29.3333 10.5565 28.048C9.73956 27.2309 9.44184 26.0976 9.33334 24.3177" stroke="white" stroke-width="2" stroke-linecap="round"/>
<path d="M14.6667 16V8C14.9629 8.53333 15.2 10.7733 17.3333 11.2M14.6667 16C14.6667 17.4728 13.4728 18.6667 12 18.6667C10.5272 18.6667 9.33334 17.4728 9.33334 16C9.33334 14.5272 10.5272 13.3333 12 13.3333C13.4728 13.3333 14.6667 14.5272 14.6667 16Z" stroke="white" stroke-width="2" stroke-linecap="round" stroke-linejoin="round"/>
</svg>
