<svg width="32" height="32" viewBox="0 0 32 32" fill="none" xmlns="http://www.w3.org/2000/svg">
<path d="M21.3333 22L26.6665 27.3333" stroke="white" stroke-width="2" stroke-linecap="round" stroke-linejoin="round"/>
<path d="M24 15.3333C24 20.488 19.8213 24.6667 14.6667 24.6667C9.51202 24.6667 5.33334 20.488 5.33334 15.3333C5.33334 10.1787 9.51202 6.00003 14.6667 6.00003" stroke="white" stroke-width="2" stroke-linecap="round" stroke-linejoin="round"/>
<path d="M20.6667 4.66672L21.0105 5.59609C21.4615 6.81474 21.6869 7.42408 22.1315 7.86857C22.576 8.31308 23.1853 8.53854 24.404 8.98949L25.3333 9.33338L24.404 9.67728C23.1853 10.1282 22.576 10.3537 22.1315 10.7982C21.6869 11.2427 21.4615 11.852 21.0105 13.0707L20.6667 14L20.3228 13.0707C19.8719 11.852 19.6464 11.2427 19.2019 10.7982C18.7573 10.3537 18.148 10.1282 16.9293 9.67728L16 9.33338L16.9293 8.98949C18.148 8.53854 18.7573 8.31308 19.2019 7.86857C19.6464 7.42408 19.8719 6.81474 20.3228 5.59609L20.6667 4.66672Z" stroke="white" stroke-width="2" stroke-linecap="round" stroke-linejoin="round"/>
</svg>
