<svg width="32" height="32" viewBox="0 0 32 32" fill="none" xmlns="http://www.w3.org/2000/svg">
<path d="M22.698 4.04476L21.4252 3.70564C17.8254 2.74647 16.0254 2.2669 14.6074 3.08098C13.1893 3.89506 12.707 5.68488 11.7424 9.26454L10.3783 14.3269C9.41364 17.9065 8.93135 19.6964 9.75004 21.1064C10.5687 22.5165 12.3687 22.996 15.9687 23.9552L17.2415 24.2944C20.8414 25.2535 22.6414 25.7331 24.0594 24.9191C25.4774 24.1049 25.9598 22.3151 26.9243 18.7355L28.2884 13.6731C29.2531 10.0934 29.7354 8.30356 28.9167 6.89354C28.098 5.48351 26.298 5.00392 22.698 4.04476Z" stroke="white" stroke-width="2"/>
<path d="M22.4717 9.91073C22.4717 10.9962 21.5868 11.8761 20.4952 11.8761C19.4036 11.8761 18.5187 10.9962 18.5187 9.91073C18.5187 8.82529 19.4036 7.94537 20.4952 7.94537C21.5868 7.94537 22.4717 8.82529 22.4717 9.91073Z" stroke="white" stroke-width="2"/>
<path d="M16 27.9284L14.7302 28.2741C11.1387 29.2521 9.34292 29.7412 7.92822 28.9111C6.51352 28.0811 6.03235 26.2561 5.07 22.6063L3.70906 17.4445C2.74671 13.7947 2.26554 11.9697 3.08232 10.532C3.78886 9.2884 5.3333 9.33368 7.3333 9.33352" stroke="white" stroke-width="2" stroke-linecap="round"/>
</svg>
